<svg width="22" height="17" viewBox="0 0 22 17" fill="none" xmlns="http://www.w3.org/2000/svg">
<path d="M20.06 6.48C18.09 4.12 14.93 1.3 11.01 1.3C10.26 1.3 9.49 1.41 8.73 1.62C8.2 1.77 7.88999 2.32 8.03999 2.85C8.18999 3.38 8.74001 3.69 9.27001 3.54C9.85001 3.38 10.44 3.29 11.01 3.29C14.31 3.29 17.13 6.08 18.52 7.75C19.15 8.51 19.16 9.58 18.55 10.34C18.31 10.64 18.04 10.95 17.74 11.27C17.36 11.67 17.38 12.31 17.78 12.68C17.97 12.86 18.22 12.95 18.47 12.95C18.74 12.95 19 12.84 19.2 12.64C19.54 12.28 19.84 11.93 20.11 11.6C21.32 10.11 21.3 7.95 20.07 6.47L20.06 6.48Z" fill="white"/>
<path d="M7.05002 3.64C7.02002 3.56 7.00001 3.48 6.95001 3.4C6.82001 3.21 6.64001 3.1 6.45001 3.03L4.71002 1.29C4.32002 0.900001 3.68002 0.900001 3.30002 1.29C2.91002 1.68 2.91002 2.31 3.30002 2.7L4.52002 3.92C3.64002 4.63 2.79002 5.47 1.96002 6.45C0.710019 7.93 0.670013 10.02 1.86001 11.54C3.37001 13.46 6.56001 16.69 10.97 16.69C12.64 16.69 14.28 16.21 15.87 15.3L17.27 16.71C17.47 16.91 17.72 17 17.98 17C18.24 17 18.49 16.9 18.69 16.71C19.08 16.32 19.08 15.69 18.69 15.3L7.06001 3.65L7.05002 3.64ZM9.07002 8.5L11.5 10.93C11.34 10.97 11.17 11 11 11C9.90001 11 9.00001 10.1 9.00001 9C9.00001 8.83 9.03002 8.66 9.07002 8.5ZM10.96 14.7C7.40002 14.7 4.71001 11.95 3.42001 10.31C2.82001 9.55 2.84001 8.49 3.47001 7.75C4.26001 6.81 5.08001 6.01 5.92001 5.36L7.56001 7C7.20001 7.61 6.99002 8.29 6.99002 9.01C6.99002 11.22 8.78002 13.01 10.99 13.01C11.7 13.01 12.39 12.8 12.99 12.45L14.38 13.85C13.25 14.42 12.1 14.71 10.95 14.71L10.96 14.7Z" fill="white"/>
</svg>
