<svg width="21" height="16" viewBox="0 0 21 16" fill="none" xmlns="http://www.w3.org/2000/svg">
<path d="M10.96 15.7C6.55001 15.7 3.36001 12.47 1.85001 10.55C0.66001 9.03 0.700001 6.94 1.95 5.46C3.93 3.11 7.12 0.310001 11.01 0.310001C14.9 0.310001 18.09 3.12 20.06 5.49C21.29 6.97 21.31 9.13 20.1 10.62C18.22 12.94 15.11 15.71 10.97 15.71L10.96 15.7ZM11.01 2.31C7.89 2.31 5.19 4.73 3.48 6.75C2.85 7.5 2.83 8.55 3.43 9.32C4.72 10.96 7.41001 13.71 10.97 13.71C14.33 13.71 16.95 11.35 18.55 9.36C19.17 8.6 19.16 7.53 18.52 6.77C17.13 5.11 14.32 2.31 11.01 2.31Z" fill="white"/>
<path d="M11 12C8.79 12 7 10.21 7 8C7 5.79 8.79 4 11 4C13.21 4 15 5.79 15 8C15 10.21 13.21 12 11 12ZM11 6C9.9 6 9 6.9 9 8C9 9.1 9.9 10 11 10C12.1 10 13 9.1 13 8C13 6.9 12.1 6 11 6Z" fill="white"/>
</svg>
